<?xml version="1.0" standalone="no"?>
<!DOCTYPE svg PUBLIC "-//W3C//DTD SVG 20010904//EN"
 "http://www.w3.org/TR/2001/REC-SVG-20010904/DTD/svg10.dtd">
<svg version="1.0" xmlns="http://www.w3.org/2000/svg"
 width="512.000000pt" height="512.000000pt" viewBox="0 0 512.000000 512.000000"
 preserveAspectRatio="xMidYMid meet">
<metadata>
Created by potrace 1.11, written by Peter Selinger 2001-2013
</metadata>
<g transform="translate(0.000000,512.000000) scale(0.100000,-0.100000)"
fill="#000000" stroke="none">
<path d="M2032 5080 c-60 -31 -95 -84 -108 -169 -4 -20 -7 -339 -7 -708 0
-370 -4 -673 -8 -673 -7 0 -114 59 -242 134 -18 10 -156 89 -307 176 -151 87
-289 166 -307 176 -18 11 -103 60 -189 109 -87 50 -181 104 -210 120 -250 145
-350 198 -393 210 -119 31 -211 -20 -246 -138 -13 -45 -15 -204 -15 -1272 l0
-1221 29 -59 c16 -33 43 -74 60 -92 25 -25 260 -166 511 -306 19 -10 94 -53
165 -95 72 -41 145 -84 163 -94 19 -10 170 -97 335 -192 166 -95 424 -243 572
-328 149 -85 441 -253 650 -373 209 -120 402 -227 429 -237 71 -28 147 -22
197 14 21 15 45 40 53 55 37 73 39 102 39 806 l0 687 23 -15 c12 -8 38 -23 56
-33 18 -10 218 -125 443 -254 226 -130 426 -244 445 -255 139 -79 358 -205
370 -213 8 -6 21 -13 29 -17 8 -3 63 -35 123 -69 158 -93 236 -110 319 -70 44
20 85 84 99 150 7 35 9 440 8 1272 -3 1017 -5 1224 -17 1237 -7 10 -10 17 -7
17 10 0 -48 81 -75 107 -13 11 -40 30 -59 41 -19 11 -70 40 -113 66 -43 25
-80 46 -82 46 -3 0 -24 12 -46 26 -23 14 -168 98 -323 186 -154 89 -294 169
-311 178 -65 38 -492 284 -525 302 -19 11 -98 57 -175 101 -77 44 -156 89
-175 100 -19 10 -75 43 -125 72 -49 29 -108 63 -130 75 -57 32 -583 334 -625
358 -132 79 -226 98 -298 62z"/>
</g>
</svg>
