<?xml version="1.0" standalone="no"?>
<!DOCTYPE svg PUBLIC "-//W3C//DTD SVG 20010904//EN"
 "http://www.w3.org/TR/2001/REC-SVG-20010904/DTD/svg10.dtd">
<svg version="1.0" xmlns="http://www.w3.org/2000/svg"
 width="515.000000pt" height="515.000000pt" viewBox="0 0 515.000000 515.000000"
 preserveAspectRatio="xMidYMid meet">
<metadata>
Created by potrace 1.11, written by Peter Selinger 2001-2013
</metadata>
<g transform="translate(0.000000,515.000000) scale(0.100000,-0.100000)"
fill="#000000" stroke="none">
<path d="M490 5127 c-262 -68 -455 -297 -476 -565 -24 -304 171 -585 461 -666
20 -6 21 -13 20 -338 0 -183 -4 -339 -8 -345 -5 -7 -17 -13 -27 -13 -10 0 -55
-19 -100 -42 -196 -100 -329 -299 -346 -516 -24 -304 171 -585 461 -666 20 -6
21 -13 20 -348 l0 -341 -62 -26 c-188 -80 -320 -231 -374 -426 -39 -142 -22
-320 42 -448 77 -153 219 -273 389 -328 74 -24 233 -33 302 -17 24 5 50 11 58
13 39 8 128 49 176 81 107 71 195 179 244 298 l22 56 328 0 327 0 23 -63 c64
-179 203 -317 387 -384 94 -34 239 -48 318 -30 22 5 49 10 59 13 69 14 200 86
267 146 47 42 118 138 139 186 12 26 25 56 30 67 5 11 12 30 15 43 l6 22 342
0 342 0 23 -60 c58 -150 198 -291 342 -347 107 -42 135 -47 250 -47 89 0 130
5 182 21 102 32 194 88 273 167 201 203 240 509 98 765 -69 125 -230 255 -357
291 l-42 11 1 332 c0 183 4 338 8 345 5 6 17 12 27 12 10 0 56 19 101 43 221
113 354 341 345 592 -10 271 -182 496 -446 585 -82 28 -238 34 -331 14 -204
-45 -393 -214 -460 -411 l-21 -59 -337 0 -338 -1 -17 51 c-31 89 -86 176 -155
246 -115 116 -256 179 -420 186 -186 8 -343 -52 -476 -181 -258 -251 -258
-659 -1 -910 85 -84 154 -123 291 -166 67 -21 258 -17 337 8 196 61 363 222
423 409 l16 51 337 -1 336 0 31 -75 c75 -187 196 -301 406 -384 l35 -14 0
-329 c-1 -181 -5 -335 -9 -341 -5 -7 -17 -13 -27 -13 -10 0 -56 -19 -101 -42
-118 -61 -220 -164 -277 -279 -24 -48 -45 -103 -49 -123 -5 -34 -8 -36 -44
-36 -51 -1 -605 -1 -623 0 -8 0 -20 17 -27 38 -52 162 -175 304 -324 377 -97
48 -175 66 -280 66 -202 0 -386 -88 -508 -243 -36 -44 -106 -180 -111 -212 -1
-8 -4 -18 -7 -20 -4 -4 -330 -8 -566 -7 l-81 1 -21 67 c-40 131 -142 265 -256
338 -49 31 -160 80 -200 87 -20 3 -20 11 -20 338 l-1 334 76 31 c97 40 148 73
219 143 118 115 181 261 187 427 4 124 -13 201 -69 314 -72 148 -190 249 -378
324 l-35 14 0 329 c1 181 5 335 9 342 5 6 17 12 27 12 10 0 56 19 101 42 144
74 266 216 314 364 l16 50 340 0 339 0 11 -40 c43 -160 200 -331 359 -393 97
-38 130 -45 223 -49 196 -7 374 67 503 210 51 57 124 187 139 247 l6 26 340
-1 339 0 11 -40 c43 -160 200 -331 359 -393 107 -42 135 -47 250 -47 89 0 130
5 182 21 217 68 381 240 438 463 15 57 19 99 16 175 -6 167 -66 305 -185 425
-115 116 -256 179 -420 186 -182 7 -341 -52 -471 -176 -78 -75 -112 -126 -155
-230 l-31 -76 -335 0 -336 -1 -17 51 c-31 89 -86 176 -155 246 -115 116 -256
179 -420 186 -182 7 -341 -52 -471 -176 -78 -75 -112 -126 -155 -230 l-31 -76
-335 0 -336 -1 -17 51 c-67 191 -220 341 -415 406 -98 32 -242 35 -351 7z"/>
</g>
</svg>
